<svg xmlns="http://www.w3.org/2000/svg" width="53.381" height="28.771" viewBox="0 0 53.381 28.771">
  <g id="Group_1148" data-name="Group 1148" transform="translate(7007.7 16500.684)">
    <path id="Path_317" data-name="Path 317" d="M41.092,2.138A145.541,145.541,0,0,0,15.12,10.863c.881-.466,1.757-.941,2.645-1.4A138.445,138.445,0,0,1,41.309,0m-2.86,16.2a145.54,145.54,0,0,0-25.972,8.725c.881-.466,1.757-.942,2.645-1.4a138.44,138.44,0,0,1,23.545-9.467m0-5.151A127.444,127.444,0,0,0,0,27.05c.3-.242.606-.486.913-.724s.623-.472.937-.706A121.758,121.758,0,0,1,29.616,10.133c2.874-1.148,5.825-2.128,8.744-3.178" transform="translate(-7007.7 -16498.961)" fill="#fff"/>
    <g id="Path_318" data-name="Path 318" transform="translate(-6974.061 -16500.684)" fill="#c60e3b">
      <path d="M 9.870941162109375 19.72218322753906 C 4.841640949249268 19.72218322753906 0.7500011324882507 15.46674346923828 0.7500011324882507 10.23609352111816 C 0.7500011324882507 5.005443572998047 4.841640949249268 0.7500035166740417 9.870941162109375 0.7500035166740417 C 14.90024089813232 0.7500035166740417 18.99188041687012 5.005443572998047 18.99188041687012 10.23609352111816 C 18.99188041687012 15.46674346923828 14.90024089813232 19.72218322753906 9.870941162109375 19.72218322753906 Z" stroke="none"/>
      <path d="M 9.870941162109375 1.500003814697266 C 5.255190849304199 1.500003814697266 1.500001907348633 5.418993949890137 1.500001907348633 10.23609352111816 C 1.500001907348633 15.05319404602051 5.255190849304199 18.97218322753906 9.870941162109375 18.97218322753906 C 14.48669052124023 18.97218322753906 18.24188041687012 15.05319404602051 18.24188041687012 10.23609352111816 C 18.24188041687012 5.418993949890137 14.48669052124023 1.500003814697266 9.870941162109375 1.500003814697266 M 9.870941162109375 3.814697265625e-06 C 15.32251167297363 3.814697265625e-06 19.74188041687012 4.582853317260742 19.74188041687012 10.23609352111816 C 19.74188041687012 15.88933372497559 15.32251167297363 20.47218322753906 9.870941162109375 20.47218322753906 C 4.419371604919434 20.47218322753906 1.9073486328125e-06 15.88933372497559 1.9073486328125e-06 10.23609352111816 C 1.9073486328125e-06 4.582853317260742 4.419371604919434 3.814697265625e-06 9.870941162109375 3.814697265625e-06 Z" stroke="none" fill="#fff"/>
    </g>
  </g>
</svg>
