<svg id="icon-instagram" xmlns="http://www.w3.org/2000/svg" width="46" height="46" viewBox="0 0 46 46">
  <circle id="Ellipse_172" data-name="Ellipse 172" cx="23" cy="23" r="23" fill="#c60e3b"/>
  <path id="Path_177" data-name="Path 177" d="M34.321,19.411c0,2.916,0,4.882-.068,5.967a8.653,8.653,0,0,1-2.373,6.1,9.093,9.093,0,0,1-6.1,2.373c-1.085.068-3.119.068-5.967.068-2.916,0-4.882,0-5.967-.068a8.653,8.653,0,0,1-6.1-2.373,8.958,8.958,0,0,1-2.373-6.1C5.3,24.293,5.3,22.259,5.3,19.411s0-4.882.068-5.967a8.653,8.653,0,0,1,2.373-6.1,8.958,8.958,0,0,1,6.1-2.373C14.929,4.9,16.963,4.9,19.811,4.9c2.916,0,4.882,0,5.967.068a8.653,8.653,0,0,1,6.1,2.373,9.093,9.093,0,0,1,2.373,6.1C34.254,14.529,34.321,16.495,34.321,19.411ZM21.235,7.477H16.42c-.475,0-1.085,0-1.831.068a8.347,8.347,0,0,0-1.966.2,5.627,5.627,0,0,0-1.356.339,6.531,6.531,0,0,0-1.7,1.085,4.855,4.855,0,0,0-1.085,1.7,5.627,5.627,0,0,0-.339,1.356c-.068.542-.136,1.153-.2,1.966,0,.746-.068,1.356-.068,1.831V22.8c0,.475,0,1.085.068,1.831a8.347,8.347,0,0,0,.2,1.966,13.064,13.064,0,0,0,.339,1.356,6.531,6.531,0,0,0,1.085,1.7,4.855,4.855,0,0,0,1.7,1.085,5.627,5.627,0,0,0,1.356.339c.542.068,1.153.136,1.966.2s1.356.068,1.831.068H23.2c.475,0,1.085,0,1.831-.068a8.347,8.347,0,0,0,1.966-.2,5.627,5.627,0,0,0,1.356-.339,6.532,6.532,0,0,0,1.7-1.085,4.855,4.855,0,0,0,1.085-1.7,5.627,5.627,0,0,0,.339-1.356c.068-.542.136-1.153.2-1.966,0-.746.068-1.356.068-1.831V16.02c0-.475,0-1.085-.068-1.831a8.347,8.347,0,0,0-.2-1.966,5.627,5.627,0,0,0-.339-1.356,6.532,6.532,0,0,0-1.085-1.7,4.855,4.855,0,0,0-1.7-1.085A5.627,5.627,0,0,0,27,7.748c-.542-.068-1.153-.136-1.966-.2-.746,0-1.356-.068-1.831-.068Zm3.8,6.645a7.212,7.212,0,0,1,2.17,5.289,7.323,7.323,0,0,1-2.17,5.289,7.212,7.212,0,0,1-5.289,2.17,7.323,7.323,0,0,1-5.289-2.17,7.212,7.212,0,0,1-2.17-5.289,7.323,7.323,0,0,1,2.17-5.289,7.212,7.212,0,0,1,5.289-2.17A6.959,6.959,0,0,1,25.032,14.122ZM23.2,22.8a4.666,4.666,0,0,0,1.424-3.39A4.819,4.819,0,0,0,23.2,15.953a4.911,4.911,0,0,0-6.916,0,4.708,4.708,0,0,0-1.424,3.458,4.454,4.454,0,0,0,1.424,3.39,4.911,4.911,0,0,0,6.916,0Zm5.56-12.409a1.644,1.644,0,1,1-1.221-.542A1.7,1.7,0,0,1,28.761,10.392Z" transform="translate(3.7 3.1)" fill="#fff"/>
</svg>
