<svg id="icon-linkedin" xmlns="http://www.w3.org/2000/svg" width="46" height="46" viewBox="0 0 46 46">
  <circle id="Ellipse_167" data-name="Ellipse 167" cx="23" cy="23" r="23" fill="#c60e3b"/>
  <path id="Icon_awesome-linkedin-in" data-name="Icon awesome-linkedin-in" d="M5.364,23.962H.4v-16H5.364ZM2.877,5.782a2.891,2.891,0,1,1,2.877-2.9A2.9,2.9,0,0,1,2.877,5.782Zm21.08,18.18H19V16.175c0-1.856-.037-4.236-2.583-4.236-2.583,0-2.979,2.016-2.979,4.1v7.921H8.476v-16H13.24v2.182h.07a5.22,5.22,0,0,1,4.7-2.583c5.028,0,5.952,3.311,5.952,7.611v8.788Z" transform="translate(10.769 10.767)" fill="#fff"/>
</svg>
