<svg id="icon-email" xmlns="http://www.w3.org/2000/svg" width="46" height="46" viewBox="0 0 46 46">
  <circle id="Ellipse_171" data-name="Ellipse 171" cx="23" cy="23" r="23" fill="#c60e3b"/>
  <path id="Icon_awesome-envelope" data-name="Icon awesome-envelope" d="M26.323,11.145a.315.315,0,0,1,.508.246V22.108a2.516,2.516,0,0,1-2.515,2.515H2.515A2.516,2.516,0,0,1,0,22.108V11.4a.313.313,0,0,1,.508-.246c1.174.912,2.73,2.07,8.076,5.953,1.106.807,2.971,2.5,4.832,2.494,1.871.016,3.773-1.719,4.837-2.494C23.6,13.22,25.149,12.057,26.323,11.145ZM13.416,17.916c1.216.021,2.966-1.53,3.847-2.17C24.216,10.7,24.746,10.259,26.349,9a1.254,1.254,0,0,0,.482-.99v-1A2.516,2.516,0,0,0,24.316,4.5H2.515A2.516,2.516,0,0,0,0,7.015v1A1.262,1.262,0,0,0,.482,9c1.6,1.252,2.133,1.7,9.087,6.745C10.45,16.385,12.2,17.937,13.416,17.916Z" transform="translate(9.969 8.226)" fill="#fff"/>
</svg>
