<svg id="icon-twitter" xmlns="http://www.w3.org/2000/svg" width="46" height="46" viewBox="0 0 46 46">
  <circle id="Ellipse_167" data-name="Ellipse 167" cx="23" cy="23" r="23" fill="#c60e3b"/>
  <path id="Path_169" data-name="Path 169" d="M98.175,136.465a15.672,15.672,0,0,0,15.778-15.778c0-.242,0-.483-.011-.713a11.361,11.361,0,0,0,2.771-2.875,11.256,11.256,0,0,1-3.186.874,5.542,5.542,0,0,0,2.438-3.071,11.229,11.229,0,0,1-3.519,1.346,5.548,5.548,0,0,0-9.591,3.795,5.081,5.081,0,0,0,.15,1.265,15.731,15.731,0,0,1-11.431-5.8,5.543,5.543,0,0,0,1.725,7.395,5.447,5.447,0,0,1-2.507-.69v.069a5.551,5.551,0,0,0,4.451,5.44,5.528,5.528,0,0,1-1.461.2,5.294,5.294,0,0,1-1.046-.1,5.537,5.537,0,0,0,5.175,3.852,11.147,11.147,0,0,1-6.889,2.369,10.082,10.082,0,0,1-1.323-.081,15.45,15.45,0,0,0,8.476,2.507" transform="translate(-79.738 -101.687)" fill="#fff"/>
</svg>
