<svg id="icon-youtube" xmlns="http://www.w3.org/2000/svg" width="46" height="46" viewBox="0 0 46 46">
  <circle id="Ellipse_171" data-name="Ellipse 171" cx="23" cy="23" r="23" fill="#c60e3b"/>
  <path id="Icon_awesome-youtube" data-name="Icon awesome-youtube" d="M29.425,7.688A3.641,3.641,0,0,0,26.863,5.11C24.6,4.5,15.54,4.5,15.54,4.5s-9.062,0-11.322.61A3.642,3.642,0,0,0,1.656,7.688a38.2,38.2,0,0,0-.606,7.021,38.2,38.2,0,0,0,.606,7.021,3.587,3.587,0,0,0,2.562,2.538c2.26.609,11.322.609,11.322.609s9.062,0,11.322-.61a3.587,3.587,0,0,0,2.562-2.538,38.2,38.2,0,0,0,.606-7.021,38.2,38.2,0,0,0-.606-7.021ZM12.576,19.018V10.4l7.574,4.309-7.574,4.309Z" transform="translate(7.66 8.812)" fill="#fff"/>
</svg>
