<svg xmlns="http://www.w3.org/2000/svg" width="26.879" height="23.892" viewBox="0 0 26.879 23.892">
  <path id="Icon_awesome-shopping-cart" data-name="Icon awesome-shopping-cart" d="M24.644,14.061,26.85,4.355a1.12,1.12,0,0,0-1.092-1.368H7.429L7,.9A1.12,1.12,0,0,0,5.9,0H1.12A1.12,1.12,0,0,0,0,1.12v.747a1.12,1.12,0,0,0,1.12,1.12H4.381L7.659,19.013a2.613,2.613,0,1,0,3.129.4h9.783a2.613,2.613,0,1,0,2.968-.486l.257-1.133A1.12,1.12,0,0,0,22.7,16.426H10.178l-.305-1.493H23.552A1.12,1.12,0,0,0,24.644,14.061Z" fill="#fff"/>
</svg>
