<svg xmlns="http://www.w3.org/2000/svg" width="475" height="475" viewBox="0 0 475 475">
  <path id="sub-image-bk-1" d="M12082.5,17520c-7.594,0-15.264-.361-22.8-1.08-7.424-.707-14.888-1.775-22.186-3.172l-5.759-17.721,17.616-12.8H12027.6l-6.727-20.7-6.729,20.7h-21.77l17.613,12.8-3.142,9.668a236.846,236.846,0,0,1-70.282-37.809,238.767,238.767,0,0,1-53.481-58.344l14.431-10.484,17.613,12.795-6.729-20.705,17.613-12.8h-21.771l-6.727-20.707-6.729,20.707h-21.771l17.612,12.8-5.155,15.873a236.062,236.062,0,0,1-30.109-71.687l12.972-9.426h-15c-1.426-7.365-2.515-14.9-3.235-22.393-.73-7.6-1.1-15.34-1.1-23.018a240.871,240.871,0,0,1,1.963-30.678l6.485,4.713-4.909-15.107c.467-2.678.986-5.385,1.546-8.045l14.248-10.352-11.826,0a236.236,236.236,0,0,1,19.362-50.363l14.757,10.721-6.726,20.705,17.613-12.8,17.613,12.8-6.729-20.705,17.613-12.8-21.771,0-6.727-20.707-6.729,20.705-17.819,0a237.7,237.7,0,0,1,145.026-116.725l-3.848,11.84h-21.77l17.613,12.8-6.729,20.709,17.613-12.8,17.614,12.8-6.73-20.709,17.616-12.8H12027.6l-4.31-13.266a237.449,237.449,0,0,1,29.036-5.541,240.769,240.769,0,0,1,60.4.006,236.784,236.784,0,0,1,29.084,5.561l-4.3,13.24h-21.772l17.614,12.8-6.729,20.709,17.614-12.8,17.614,12.8-6.728-20.709,17.614-12.8h-21.771l-3.838-11.807a236.833,236.833,0,0,1,84.653,43.867,238.474,238.474,0,0,1,60.256,72.822l-17.713,0-6.727-20.707-6.729,20.705-21.772,0,17.614,12.795-6.727,20.705,17.613-12.8,17.614,12.8-6.729-20.705,14.681-10.664a236.13,236.13,0,0,1,19.333,50.309l-11.72,0,14.122,10.262c.584,2.768,1.123,5.576,1.6,8.35l-4.837,14.895,6.385-4.641a240.832,240.832,0,0,1,1.954,30.605c0,7.68-.371,15.422-1.1,23.018-.721,7.492-1.81,15.027-3.236,22.393h-14.891l12.882,9.361a236.229,236.229,0,0,1-30.054,71.639l-5.122-15.76,17.614-12.8h-21.772l-6.727-20.707-6.729,20.707h-21.772l17.614,12.8-6.727,20.705,17.613-12.795,14.357,10.432a237.758,237.758,0,0,1-123.7,96.174l-3.131-9.637,17.614-12.8h-21.771l-6.729-20.7-6.727,20.7h-21.772l17.614,12.8-5.751,17.7c-7.307,1.406-14.79,2.48-22.242,3.193C12097.8,17519.635,12090.105,17520,12082.5,17520Zm123.417-107.916-6.729,20.709h-21.771l17.613,12.8-6.729,20.705,17.615-12.8h0l17.612,12.8-6.728-20.705,17.612-12.8h-21.771Zm-123.362,0-6.727,20.709h-21.771l17.613,12.8-6.729,20.705,17.614-12.8h0l17.612,12.8-6.726-20.705,17.613-12.8h-21.772Zm-123.358,0-6.73,20.709h-21.769l17.611,12.8-6.728,20.705,17.614-12.8h0l17.613,12.8-6.729-20.705,17.614-12.8h-21.772Zm185.038-52.439-6.727,20.707h-21.772l17.614,12.8-6.729,20.705,17.613-12.795h0l17.614,12.795-6.728-20.705,17.614-12.8h-21.771Zm-123.359,0-6.729,20.707h-21.77l17.613,12.8-6.729,20.705,17.612-12.795h0l17.614,12.795-6.73-20.705,17.616-12.8H12027.6Zm156.541-31.736,17.613,12.8-6.729,20.7,17.615-12.8h0l17.612,12.8-6.728-20.7,17.612-12.8h-21.771l-6.726-20.705-6.729,20.705Zm-123.359,0,17.613,12.8-6.729,20.7,17.614-12.8h0l17.612,12.8-6.726-20.7,17.613-12.8h-21.772l-6.729-20.705-6.727,20.705Zm-123.359,0,17.611,12.8-6.728,20.7,17.614-12.8h0l17.613,12.8-6.729-20.7,17.614-12.8h-21.772l-6.726-20.705-6.73,20.705Zm308.4-52.439,17.614,12.8-6.727,20.705,17.612-12.8h0l17.613,12.8-6.729-20.705,17.614-12.8h-21.772l-6.727-20.707-6.729,20.707Zm-123.359,0,17.614,12.8-6.729,20.705,17.613-12.8h0l17.614,12.8-6.728-20.705,17.614-12.8h-21.771l-6.729-20.707-6.727,20.707Zm-123.358,0,17.613,12.8-6.729,20.705,17.612-12.8h0l17.614,12.8-6.73-20.705,17.616-12.8H12027.6l-6.727-20.707-6.729,20.707Zm-123.361,0,17.612,12.8-6.726,20.705,17.613-12.8h0l17.613,12.8-6.729-20.705,17.613-12.8h-21.771l-6.727-20.707-6.729,20.707Zm308.4-52.441,17.613,12.8-6.729,20.707,17.615-12.8h0l17.612,12.8-6.728-20.707,17.612-12.8-21.771,0-6.726-20.705-6.729,20.707Zm-123.359,0,17.613,12.8-6.729,20.707,17.614-12.8h0l17.612,12.8-6.726-20.707,17.613-12.8-21.772,0-6.729-20.705-6.727,20.707Zm-123.359,0,17.611,12.8-6.728,20.707,17.614-12.8h0l17.613,12.8-6.729-20.707,17.614-12.8-21.772,0-6.726-20.705-6.73,20.707Zm213.537-73.145-6.727,20.705-21.772,0,17.614,12.795-6.729,20.705,17.613-12.8h0l17.614,12.8-6.728-20.705,17.614-12.8-21.771,0Zm-123.359,0-6.729,20.705-21.77,0,17.613,12.795-6.729,20.705,17.612-12.8h0l17.614,12.8-6.73-20.705,17.616-12.8-21.773,0Zm156.541-31.736,17.613,12.795-6.729,20.709,17.615-12.8h0l17.612,12.8-6.728-20.709,17.612-12.795h-21.771l-6.726-20.707-6.729,20.707Zm-123.359,0,17.613,12.795-6.729,20.709,17.614-12.8h0l17.612,12.8-6.726-20.709,17.613-12.795h-21.772l-6.729-20.707-6.727,20.707Zm-123.359,0,17.611,12.795-6.728,20.709,17.614-12.8h0l17.613,12.8-6.729-20.709,17.614-12.795h-21.772l-6.726-20.707-6.73,20.707Zm102.471,396.723c-6.095-1.285-12.229-2.838-18.23-4.615l5.938-4.316,12.293,8.932Zm98.818-.031v0l12.248-8.9,5.907,4.293C12144.167,17512,12138.059,17513.549,12131.982,17514.838Z" transform="translate(-11844.998 -17045)" fill="#0f1d41" opacity="0.75"/>
</svg>
