<svg xmlns="http://www.w3.org/2000/svg" width="475.002" height="475.002" viewBox="0 0 475.002 475.002">
  <path id="sub-image-bk-2" d="M12138.5,17520a236.452,236.452,0,0,1-127.36-37h254.721a236.446,236.446,0,0,1-127.36,37Zm171.311-73h0v0l-342.62,0a238.962,238.962,0,0,1-29.1-37l400.82,0A239.03,239.03,0,0,1,12309.811,17447Zm47.925-73h0l0,0v0h-438.467a236.5,236.5,0,0,1-11.747-36h461.963a236.3,236.3,0,0,1-11.746,36Zm17.556-73H11901.71c-.472-6.127-.711-12.352-.711-18.5s.239-12.379.71-18.5h473.582c.472,6.123.71,12.346.71,18.5s-.239,12.385-.71,18.5Zm-5.81-74h-461.963a236.416,236.416,0,0,1,11.747-36h438.469a236.331,236.331,0,0,1,11.747,36Zm-31.211-73h-399.541a239.07,239.07,0,0,1,28.46-36l342.621,0a239.012,239.012,0,0,1,28.459,35.992v0h0Zm-73.991-73h-251.558a237.326,237.326,0,0,1,251.555,0Z" transform="translate(-11900.999 -17044.998)" fill="#c60e3b" opacity="0.75"/>
</svg>
